<svg xmlns="http://www.w3.org/2000/svg" width="476.428" height="138.247" viewBox="0 0 476.428 138.247"><defs><style>.a,.d{fill:#fff;}.b,.c{fill:#9d2449;}.c{fill-rule:evenodd;}.d{font-size:24px;font-family:Arial-Black, Arial;font-weight:800;letter-spacing:0.33em;}</style></defs><g transform="translate(-143.572 -138.753)"><path class="a" d="M109.949.4h6.186V15.365h9.578v4.789H109.949ZM88.2.4h16.363V4.59H94.185V7.782h9.578v3.991H94.185v3.991h10.576v4.39H88.2ZM76.825.4h5.986V12.172a15.508,15.508,0,0,1-.4,3.193,6.765,6.765,0,0,1-1.8,2.794,5.6,5.6,0,0,1-2.395,1.6,9.6,9.6,0,0,1-4.39.8c-1,0-2-.2-3.193-.2a11.438,11.438,0,0,1-2.794-.8,5.66,5.66,0,0,1-2-1.8,4.526,4.526,0,0,1-1.4-2.195,12.158,12.158,0,0,1-.6-3.392V.4H70.04V12.372a3.386,3.386,0,0,0,.8,2.594,3.386,3.386,0,0,0,2.594.8,3.181,3.181,0,0,0,2.395-.8,3.447,3.447,0,0,0,1-2.594ZM49.487,12.97V8.78h9.379v8.58a17.772,17.772,0,0,1-4.789,2.395,12.47,12.47,0,0,1-4.989.8,12.442,12.442,0,0,1-5.787-1.2,8.454,8.454,0,0,1-3.392-3.592,12.149,12.149,0,0,1-1.2-5.587,10.123,10.123,0,0,1,1.4-5.587A8.269,8.269,0,0,1,43.9,1a13.658,13.658,0,0,1,5.388-1,15.269,15.269,0,0,1,4.989.6,6.765,6.765,0,0,1,2.794,1.8,11.928,11.928,0,0,1,1.6,3.193l-5.986,1a3.1,3.1,0,0,0-1.2-1.6,4.022,4.022,0,0,0-2.195-.6,3.721,3.721,0,0,0-3.193,1.4c-.8.8-1.2,2.395-1.2,4.39a7.03,7.03,0,0,0,1.2,4.59,3.87,3.87,0,0,0,3.392,1.4,5.827,5.827,0,0,0,1.8-.4,5.388,5.388,0,0,0,2.195-1v-1.8ZM27.537.4h5.986V20.154H27.537ZM0,.4H7.982l3.193,11.973L14.168.4h8.181V20.154H17.36V4.989L13.369,20.154H8.78L4.989,4.989V20.154H0Z" transform="translate(143.572 138.753)"/><g transform="translate(143.572 172.277)"><path class="b" d="M1380.354,214.725c0,6.385,1.2,10.975,3.791,13.769q3.592,4.19,10.177,4.19c4.39,0,7.782-1.2,10.177-3.991s3.592-7.583,3.592-14.766c0-5.986-1.2-10.376-3.791-12.97q-3.592-4.19-10.177-4.19c-4.191,0-7.583,1.4-9.977,4.19C1381.551,203.75,1380.354,208.34,1380.354,214.725Zm-20.354,0c0-10.376,2.993-18.358,8.979-24.145s14.367-8.58,25.143-8.58c10.975,0,19.555,2.794,25.542,8.381,5.986,5.787,8.98,13.569,8.98,23.945,0,7.383-1.4,13.369-3.991,18.159a27.448,27.448,0,0,1-11.374,10.975c-4.789,2.594-10.975,3.991-18.358,3.991s-13.569-1.2-18.558-3.392a30.893,30.893,0,0,1-11.973-10.775C1361.4,228.294,1360,222.108,1360,214.725Z" transform="translate(-1088.62 -179.206)"/><path class="b" d="M1046.755,236.687h9.977q5.088,0,7.184-1.8a6.072,6.072,0,0,0,2.2-4.789,5.3,5.3,0,0,0-2.2-4.39q-2.1-1.8-7.184-1.8h-9.977Zm0-24.744h8.58c2.993,0,5.188-.6,6.385-1.6a5.725,5.725,0,0,0,1.8-4.59,5.572,5.572,0,0,0-1.8-4.39c-1.2-1-3.193-1.6-6.186-1.6h-8.78ZM1027,187h36.716c6.186,0,10.775,1.6,14.168,4.59a14.792,14.792,0,0,1,4.789,11.174,13.445,13.445,0,0,1-3.392,9.578,13.889,13.889,0,0,1-6.785,4.39,18.049,18.049,0,0,1,9.977,5.587c2.2,2.594,3.193,5.986,3.193,9.977a18.686,18.686,0,0,1-2.2,8.98,18.938,18.938,0,0,1-6.385,6.186c-1.6,1-3.991,1.6-7.383,2-4.39.6-7.383,1-8.78,1H1027Z" transform="translate(-822.068 -183.209)"/><path class="b" d="M19.755,236.687h9.977q5.088,0,7.184-1.8a5.916,5.916,0,0,0,2-4.789,5.137,5.137,0,0,0-2-4.39q-2.1-1.8-7.184-1.8H19.755Zm0-24.744h8.58c2.993,0,5.188-.6,6.385-1.6a5.725,5.725,0,0,0,1.8-4.59,5.572,5.572,0,0,0-1.8-4.39c-1.2-1-3.392-1.6-6.385-1.6h-8.58ZM0,187H36.716c5.986,0,10.775,1.6,13.968,4.59a14.3,14.3,0,0,1,4.989,11.174,13.6,13.6,0,0,1-3.592,9.578c-1.4,2-3.791,3.392-6.785,4.39,4.59,1,7.982,2.993,10.177,5.587a16.121,16.121,0,0,1,3.193,9.977,17.388,17.388,0,0,1-8.58,15.165,20.623,20.623,0,0,1-7.583,2,87.785,87.785,0,0,1-8.78,1H0Z" transform="translate(0 -183.209)"/><path class="c" d="M744.7,230.1l17.759,20.354H740.909L724.945,231.9h-5.787v18.558H701V187h34.92c11.973,0,21.75,9.578,21.75,21.152v2.594A21.419,21.419,0,0,1,744.7,230.1Zm-25.542-27.138h13.569a7.09,7.09,0,1,1,0,14.168H719.159Z" transform="translate(-561.119 -183.209)"/><path class="b" d="M348.3,225.113l-6.784-19.356-6.784,19.356Zm4.789,14.766H329.945l-3.193,10.576H306L330.743,187h22.149l24.744,63.455H356.285Z" transform="translate(-244.939 -183.209)"/><path class="b" d="M2070.093,239.879h-22.948l-3.392,10.576H2023L2047.743,187h22.349l24.544,63.455h-21.152Zm-4.59-14.766-6.784-19.356-6.984,19.356Z" transform="translate(-1619.322 -183.209)"/><path class="b" d="M1737.179,213.1c4.39,3.592,18.358,11.973,25.342,7.583a3.7,3.7,0,0,0,1.8-3.392,4.262,4.262,0,0,0-1.6-3.392c-1.8-1.6-7.184-2.794-9.379-3.392h-.6l-.2-.2h-.6l-.2-.2h-.6l-.2-.2h-.6l-.2-.2h-.6l-.2-.2h-.4l-.2-.2h-.6l-.2-.2h-.6v-.2h-.6v-.2h-.6l-.2-.2h-.4l-.2-.2h0c-4.19-1.4-8.181-3.193-10.975-5.787a16.612,16.612,0,0,1-5.787-9.778,2.654,2.654,0,0,1-.6-1.6,22.292,22.292,0,0,1,2-9.578h.2v-.2h0v-.2h0l.2-.2h0v-.2h.2v-.2h0l.2-.2h0v-.2h0l.2-.2h0v-.2h.2l.4-.6a21.6,21.6,0,0,1,9.977-8.381c4.789-2.195,10.576-2.794,15.764-2.794,7.583,0,16.562,2.195,25.941,9.379l-9.179,13.769c-4.39-3.592-15.564-10.576-22.548-6.186a3.92,3.92,0,0,0-1.8,3.392,4.262,4.262,0,0,0,1.6,3.392c1.8,1.6,7.184,2.794,9.379,3.392,2.794.6,6.186,1.2,9.379,2,12.97,3.791,18.957,17.959,12.571,29.533a21.7,21.7,0,0,1-10.177,8.181c-4.789,2.2-10.376,2.794-15.764,2.794-7.583,0-19.356-3.392-28.734-10.775Z" transform="translate(-1383.187 -168)"/></g><text class="d" transform="translate(144 270)"><tspan x="0" y="0">DIARIO DE RESULTADOS</tspan></text></g></svg>